# AST/ASF file generated using VICON BodyLanguage
# -----------------------------------------------
:version 1.10
:name VICON
:units
  mass 1.0
  length 0.45
  angle deg
:documentation
   .ast/.asf automatically generated from VICON data using
   VICON BodyBuilder and BodyLanguage model FoxedUp or BRILLIANT.MOD
:root
   order TX TY TZ RX RY RZ
   axis XYZ
   position 0 0 0  
   orientation 0 0 0 
:bonedata
  begin
     id 1 
     name lhipjoint
     direction 0.714689 -0.624256 0.315473 
     length 2.45343 
     axis 0 0 0  XYZ
  end
  begin
     id 2 
     name lfemur
     direction 0.34202 -0.939693 0  
     length 6.59069  
     axis 0 0 20  XYZ
    dof rx ry rz
    limits (-160.0 20.0)
           (-70.0 70.0)
           (-60.0 70.0)
  end
  begin
     id 3 
     name ltibia
     direction 0.34202 -0.939693 0   
     length 6.73476   
     axis 0 0 20   XYZ
    dof rx
    limits (-10.0 170.0)
  end
  begin
     id 4 
     name lfoot
     direction 0.0718085 -0.197292 0.977711   
     length 1.52607   
     axis -90 7.62852e-016 20   XYZ
    dof rx rz
    limits (-45.0 90.0)
           (-70.0 20.0)
  end
  begin
     id 5 
     name ltoes
     direction 1.53553e-011 -4.22024e-011 1   
     length 0.777832   
     axis -90 7.62852e-016 20   XYZ
    dof rx
    limits (-90.0 20.0)
  end
  begin
     id 6 
     name rhipjoint
     direction -0.727419 -0.612432 0.309497   
     length 2.50079  
     axis 0 0 0  XYZ 
  end
  begin
     id 7 
     name rfemur
     direction -0.34202 -0.939693 0   
     length 6.51665   
     axis 0 0 -20   XYZ
    dof rx ry rz
    limits (-160.0 20.0)
           (-70.0 70.0)
           (-70.0 60.0)
  end
  begin
     id 8 
     name rtibia
     direction -0.34202 -0.939693 0   
     length 6.48919   
     axis 0 0 -20   XYZ
    dof rx
    limits (-10.0 170.0)
 end
 begin
     id 9 
     name rfoot
     direction -0.112205 -0.308282 0.944655   
     length 1.68717  
     axis -90 -7.62852e-016 -20   XYZ
    dof rx rz
    limits (-45.0 90.0)
           (-20.0 70.0)
  end
  begin
     id 10 
     name rtoes
     direction -1.53583e-011 -4.21993e-011 1   
     length 0.846859   
     axis -90 -7.62852e-016 -20   XYZ
    dof rx
    limits (-90.0 20.0)
  end
  begin
     id 11 
     name lowerback
     direction -0.00119603 0.996364 -0.0851956   
     length 1.67242   
     axis 0 0 0   XYZ
    dof rx ry rz
    limits (-20.0 45.0)
           (-30.0 30.0)
           (-30.0 30.0)
  end
  begin
     id 12 
     name upperback
     direction -0.00531001 0.998318 0.0577248   
     length 1.64819   
     axis 0 0 0   XYZ
    dof rx ry rz
    limits (-20.0 45.0)
           (-30.0 30.0)
           (-30.0 30.0)
  end
  begin
     id 13 
     name thorax
     direction -0.00653676 0.995132 0.0983291   
     length 1.67429   
     axis 0 0 0   XYZ
    dof rx ry rz
    limits (-20.0 45.0)
           (-30.0 30.0)
           (-30.0 30.0)
  end
  begin
     id 14 
     name lowerneck
     direction 0.0141424 0.999886 0.00525412   
     length 1.59623   
     axis 0 0 0   XYZ
    dof rx ry rz
    limits (-20.0 45.0)
           (-30.0 30.0)
           (-30.0 30.0)
  end
  begin
     id 15 
     name upperneck
     direction -0.0640064 0.987178 -0.146232   
     length 1.59576   
     axis 0 0 0   XYZ
    dof rx ry rz
    limits (-20.0 45.0)
           (-30.0 30.0)
           (-30.0 30.0)
  end
  begin
     id 16
     name head
     direction -0.0222942 0.998496 -0.0500859  
     length 1.60959  
     axis 0 0 0   XYZ
    dof rx ry rz
    limits (-20.0 45.0)
           (-30.0 30.0)
           (-30.0 30.0)
  end
  begin
     id 17 
     name lclavicle
     direction 0.908549 0.392612 0.142806  
     length 2.80649  
     axis 0 0 0   XYZ
    dof ry rz
    limits (-20.0 10.0)
           (0.0 20.0)
  end
  begin
     id 18 
     name lhumerus
     direction 1 -4.48968e-011 1.08832e-028   
     length 4.2884   
     axis -180 -30 -90   XYZ
    dof rx ry rz
    limits (-60.0 90.0)
           (-90.0 90.0)
           (-90.0 90.0)
  end
  begin
     id 19
     name lradius
     direction 1 -4.48952e-011 -3.02642e-028   
     length 3.06552   
     axis -180 -30 -90   XYZ
    dof rx
    limits (-10.0 170.0)
  end
  begin
     id 20
     name lwrist
     direction 1 -4.49014e-011 1.58672e-027   
     length 1.53276   
     axis -1.65735e-015 90 90   XYZ
    dof ry
    limits (-180.0 0.0)
 end
  begin
     id 21 
     name lhand
     direction 1 -4.48928e-011 3.17344e-027   
     length 0.753045   
     axis -2.02492e-015 90 90   XYZ
    dof rx rz
    limits (-90.0 90.0)
           (-45.0 45.0)
  end
  begin
     id 22 
     name lfingers
     direction 1 -4.48958e-011 6.34687e-027   
     length 0.607124   
     axis -4.04985e-015 90 90   XYZ
    dof rx
    limits (0.0 90.0)
  end
  begin
     id 23
     name lthumb
     direction 0.707107 -6.34905e-011 0.707107   
     length 0.871712   
     axis -90 45 2.85299e-015   XYZ
    dof rx rz
    limits (-45.0 45.0)
           (-45.0 45.0)
  end
  begin
     id 24 
     name rclavicle
     direction -0.885098 0.45949 0.0739604   
     length 2.9478  
     axis 0 0 0   XYZ 
    dof ry rz
    limits (-10.0 20.0)
           (-20.0 0.0)
  end
  begin
     id 25 
     name rhumerus
     direction -1 -4.4898e-011 -2.61739e-027  
     length 4.52172   
     axis -180 30 90   XYZ
    dof rx ry rz
    limits (-90.0 60.0)
           (-90.0 90.0)
           (-90.0 90.0)
  end
  begin
     id 26 
     name rradius
     direction -1 -4.48945e-011 9.02552e-028   
     length 2.8914   
     axis -180 30 90   XYZ
    dof rx
    limits (-10.0 170.0)
  end
  begin
     id 27 
     name rwrist
     direction -1 -4.49018e-011 1.58672e-027   
     length 1.4457   
     axis -1.65735e-015 -90 -90   XYZ
    dof ry
    limits (-180.0 0.0)
  end
  begin
     id 28
     name rhand
     direction -1 -4.48825e-011 3.17344e-027   
     length 0.680541   
     axis -2.02492e-015 -90 -90   XYZ
    dof rx rz
    limits (-90.0 90.0)
           (-45.0 45.0)
  end
  begin
     id 29
     name rfingers
     direction -1 -4.49067e-011 6.34687e-027   
     length 0.54867   
     axis -4.04985e-015 -90 -90   XYZ
    dof rx
    limits (0.0 90.0)
  end
  begin
     id 30
     name rthumb
     direction -0.707107 -6.34833e-011 0.707107   
     length 0.787783   
     axis -90 -45 -2.85299e-015   XYZ
    dof rx rz
    limits (-45.0 45.0)
           (-45.0 45.0)
  end
:hierarchy
  begin
    root lhipjoint rhipjoint lowerback
    lhipjoint lfemur
    lfemur ltibia
    ltibia lfoot
    lfoot ltoes
    rhipjoint rfemur
    rfemur rtibia
    rtibia rfoot
    rfoot rtoes
    lowerback upperback
    upperback thorax
    thorax lowerneck lclavicle rclavicle
    lowerneck upperneck
    upperneck head
    lclavicle lhumerus
    lhumerus lradius
    lradius lwrist
    lwrist lhand lthumb
    lhand lfingers
    rclavicle rhumerus
    rhumerus rradius
    rradius rwrist
    rwrist rhand rthumb
    rhand rfingers
  end

#!OML:ASF E:\emotionWalksFemale\Project 1\Capture day 1\Session 1\Female1.ASF
:FULLY-SPECIFIED
:DEGREES
81
root 8.79263 14.7652 22.6489 186.823 5.50212 -178.389
lowerback 13.8858 1.19923 1.64826
upperback -2.10176 1.93678 0.358787
thorax -10.0526 0.848254 -0.977223
lowerneck -8.32029 -1.73063 -4.85396
upperneck 1.7286 -1.95799 4.97699
head 2.12566 -0.849733 2.38357
rclavicle 1.18153e-014 2.48481e-015
rhumerus -37.3324 9.85692 -89.6832
rradius 37.855
rwrist 26.353
rhand -10.8716 -51.7705
rfingers 7.12502
rthumb 15.1442 -81.1964
lclavicle 1.18153e-014 2.48481e-015
lhumerus -38.6891 -2.48443 86.8255
lradius 39.011
lwrist -9.94636
lhand -6.75794 -34.8464
lfingers 7.12502
lthumb 19.1036 -5.76465
rfemur -25.7764 6.19424 24.1817
rtibia 45.7374
rfoot -25.9633 -20.6011
rtoes -8.7201
lfemur -28.5429 -2.85017 -19.762
ltibia 49.1803
lfoot -31.4137 7.16011
ltoes -33.2842
82
root 8.7925 14.7401 22.6523 187.071 5.63947 -178.394
lowerback 14.9557 1.19077 1.64548
upperback -2.59948 1.94444 0.285555
thorax -11.2303 0.827019 -1.09402
lowerneck -8.21369 -1.69862 -4.80716
upperneck 1.97487 -1.94052 5.01307
head 2.18681 -0.844038 2.38963
rclavicle -9.74045e-015 -2.33572e-015
rhumerus -38.0815 9.79322 -89.9047
rradius 38.0361
rwrist 26.5514
rhand -8.70171 -52.7957
rfingers 7.12502
rthumb 17.2336 -82.0515
lclavicle -9.74045e-015 -2.33572e-015
lhumerus -39.4521 -2.34547 86.6272
lradius 39.1844
lwrist -9.75365
lhand -6.33999 -34.6639
lfingers 7.12502
lthumb 19.5055 -5.62234
rfemur -26.4049 6.31444 24.1475
rtibia 46.3669
rfoot -26.0811 -20.6844
rtoes -9.41317
lfemur -29.1351 -2.70443 -19.7761
ltibia 49.8167
lfoot -31.7272 7.1598
ltoes -33.2221
83
root 8.79187 14.714 22.6556 187.349 5.75455 -178.347
lowerback 14.3752 1.23002 1.58538
upperback -2.13723 1.97935 0.36683
thorax -10.3781 0.867686 -0.956779
lowerneck -8.279 -1.69527 -4.93192
upperneck 1.11858 -1.8736 5.12174
head 1.91627 -0.796806 2.4458
rclavicle -5.29264e-015 -7.95139e-016
rhumerus -37.2023 9.85237 -89.5937
rradius 38.0308
rwrist 26.8968
rhand -9.906 -52.079
rfingers 7.12502
rthumb 16.0742 -81.4323
lclavicle -5.29264e-015 -7.95139e-016
lhumerus -38.4199 -1.97966 86.594
lradius 38.8258
lwrist -9.7119
lhand -5.98002 -34.503
lfingers 7.12502
lthumb 19.8516 -5.49681
rfemur -27.0636 6.43391 24.1695
rtibia 47.0095
rfoot -26.0609 -20.7349
rtoes -9.35087
lfemur -29.7647 -2.60715 -19.7246
ltibia 50.44
lfoot -31.999 7.12653
ltoes -33.2399
84
root 8.79014 14.6862 22.6558 187.656 5.79073 -178.232
lowerback 15.3933 1.19134 1.78215
upperback -2.67199 1.9868 0.314333
thorax -11.5653 0.833491 -1.16385
lowerneck -7.84314 -1.67546 -4.93198
upperneck 0.982994 -1.86847 5.26138
head 1.79519 -0.797303 2.4911
rclavicle 2.44132e-014 -3.37934e-015
rhumerus -37.8912 9.75223 -89.8215
rradius 38.0812
rwrist 26.7782
rhand -11.1708 -51.7109
rfingers 7.12502
rthumb 14.8559 -81.1583
lclavicle 2.44132e-014 -3.37934e-015
lhumerus -39.1467 -1.96237 86.4225
lradius 38.7292
lwrist -9.73513
lhand -6.38116 -34.7917
lfingers 7.12502
lthumb 19.4659 -5.74614
rfemur -27.7194 6.52965 24.2786
rtibia 47.6533
rfoot -26.4554 -20.6338
rtoes -8.36724
lfemur -30.4034 -2.56627 -19.5879
ltibia 51.0475
lfoot -32.3028 6.9758
ltoes -32.5703
85
root 8.7893 14.6615 22.6572 188.002 5.85405 -178.233
lowerback 15.3925 1.21107 1.73317
upperback -2.60466 2.00419 0.325071
thorax -11.4903 0.847244 -1.12766
lowerneck -7.93787 -1.73047 -4.92918
upperneck 0.655907 -1.9141 5.17017
head 1.70568 -0.816302 2.45581
rclavicle -5.66536e-015 1.19271e-015
rhumerus -37.506 9.85641 -89.7701
rradius 37.9384
rwrist 26.2808
rhand -10.274 -52.274
rfingers 7.12502
rthumb 15.7198 -81.6556
lclavicle -5.66536e-015 1.19271e-015
lhumerus -39.0119 -1.95788 86.4209
lradius 38.7597
lwrist -9.67616
lhand -7.07188 -35.1785
lfingers 7.12502
lthumb 18.8017 -6.0672
rfemur -28.4352 6.6767 24.2403
rtibia 48.2866
rfoot -26.9573 -20.6196
rtoes -8.16851
lfemur -31.0732 -2.50273 -19.5855
ltibia 51.6314
lfoot -32.649 6.82444
ltoes -31.4849
86
root 8.78912 14.6362 22.6607 188.385 6.02295 -178.303
lowerback 15.3672 1.2578 1.60422
upperback -2.49907 2.03715 0.304073
thorax -11.3588 0.873255 -1.08338
lowerneck -8.18927 -1.78121 -4.98918
upperneck 0.326542 -1.93922 5.19588
head 1.64622 -0.817864 2.47278
rclavicle 1.2275e-014 -2.18663e-015
rhumerus -37.0366 9.94569 -89.6627
rradius 37.8859
rwrist 26.1592
rhand -11.2645 -51.8754
rfingers 7.12502
rthumb 14.7657 -81.3294
lclavicle 1.2275e-014 -2.18663e-015
lhumerus -38.7492 -1.82725 86.3555
lradius 38.8929
lwrist -9.57247
lhand -7.21338 -35.2816
lfingers 7.12502
lthumb 18.6656 -6.15712
rfemur -29.2307 6.8664 24.1008
rtibia 48.9063
rfoot -27.3211 -20.5248
rtoes -7.68958
lfemur -31.79 -2.34975 -19.672
ltibia 52.2075
lfoot -32.9773 6.79648
ltoes -31.201
87
root 8.78801 14.6122 22.6607 188.774 6.19579 -178.297
lowerback 15.3431 1.30833 1.60978
upperback -2.42802 2.09972 0.262109
thorax -11.261 0.902773 -1.14583
lowerneck -8.23705 -1.81687 -5.0318
upperneck -0.162278 -1.94731 5.32885
head 1.49926 -0.808916 2.52218
rclavicle -1.82136e-014 -1.2424e-015
rhumerus -36.7187 9.92061 -89.5969
rradius 38.0682
rwrist 26.0561
rhand -11.0708 -52.0848
rfingers 7.12502
rthumb 14.9523 -81.5251
lclavicle -1.82136e-014 -1.2424e-015
lhumerus -38.5335 -1.69804 86.2536
lradius 38.9734
lwrist -9.55767
lhand -7.05878 -35.038
lfingers 7.12502
lthumb 18.8143 -5.92787
rfemur -29.9949 7.03566 24.0464
rtibia 49.4967
rfoot -27.7241 -20.3531
rtoes -6.6937
lfemur -32.5095 -2.17367 -19.6942
ltibia 52.7902
lfoot -33.2283 7.01238
ltoes -32.075
88
root 8.78671 14.5898 22.6577 189.135 6.23812 -178.194
lowerback 15.3733 1.31462 1.74965
upperback -2.36878 2.13231 0.23035
thorax -11.205 0.909388 -1.26752
lowerneck -8.4638 -1.83366 -4.88455
upperneck -0.438492 -1.94554 5.27133
head 1.4459 -0.79807 2.4742
rclavicle -1.24862e-014 -4.22417e-015
rhumerus -36.4905 9.83414 -89.5394
rradius 38.3605
rwrist 26.0835
rhand -11.259 -52.1203
rfingers 7.12502
rthumb 14.771 -81.574
lclavicle -1.24862e-014 -4.22417e-015
lhumerus -38.3109 -1.66544 86.1645
lradius 38.9469
lwrist -9.60932
lhand -7.22761 -34.5382
lfingers 7.12502
lthumb 18.6519 -5.41241
rfemur -30.6546 7.19007 24.1219
rtibia 50.0635
rfoot -28.027 -20.4745
rtoes -6.52768
lfemur -33.2065 -2.0823 -19.5963
ltibia 53.3838
lfoot -33.4321 7.17999
ltoes -32.6388
89
root 8.78614 14.5634 22.6573 189.495 6.1704 -178.082
lowerback 15.4147 1.2656 1.88238
upperback -2.29071 2.09351 0.227318
thorax -11.138 0.884579 -1.33639
lowerneck -8.64417 -1.82786 -4.79573
upperneck -0.841796 -1.90121 5.27302
head 1.34297 -0.762938 2.45809
rclavicle 7.41715e-015 -1.05356e-014
rhumerus -36.2142 9.95285 -89.5567
rradius 38.4219
rwrist 25.9794
rhand -11.743 -51.6807
rfingers 7.12502
rthumb 14.3046 -81.1679
lclavicle 7.41715e-015 -1.05356e-014
lhumerus -38.0596 -1.57693 86.0492
lradius 38.8602
lwrist -9.69514
lhand -7.57505 -34.4073
lfingers 7.12502
lthumb 18.3177 -5.24977
rfemur -31.3087 7.36407 24.2154
rtibia 50.625
rfoot -28.2607 -20.7547
rtoes -6.71423
lfemur -33.9387 -2.15325 -19.4443
ltibia 53.9969
lfoot -33.7249 6.95747
ltoes -31.5185
90
root 8.78487 14.5355 22.6561 189.872 6.16192 -178.077
lowerback 15.4615 1.21619 1.88031
upperback -2.24858 2.02763 0.221541
thorax -11.1201 0.854114 -1.3261
lowerneck -8.51783 -1.81178 -4.85119
upperneck -1.5121 -1.82875 5.37654
head 1.10273 -0.713519 2.50256
rclavicle 7.37988e-015 7.7526e-015
rhumerus -35.8966 10.2113 -89.6631
rradius 38.2666
rwrist 25.5937
rhand -11.5302 -51.9249
rfingers 7.12502
rthumb 14.5097 -81.3975
lclavicle 7.37988e-015 7.7526e-015
lhumerus -37.9738 -1.43412 85.9198
lradius 38.8393
lwrist -9.70041
lhand -7.90694 -34.7927
lfingers 7.12502
lthumb 17.9984 -5.60546
rfemur -32.0235 7.52169 24.1736
rtibia 51.2049
rfoot -28.3833 -20.9737
rtoes -6.62942
lfemur -34.6591 -2.19884 -19.4555
ltibia 54.5983
lfoot -33.9335 7.33304
ltoes -32.0523
91
root 8.78479 14.5081 22.6542 190.239 6.23629 -178.086
lowerback 15.5851 1.18381 1.83063
upperback -2.22871 1.97826 0.224809
thorax -11.1735 0.833415 -1.28563
lowerneck -8.41932 -1.83851 -4.88729
upperneck -2.12349 -1.81574 5.38264
head 0.88861 -0.695713 2.50927
rclavicle 2.37548e-014 2.33572e-015
rhumerus -35.5974 10.3889 -89.6758
rradius 38.2104
rwrist 25.483
rhand -11.7862 -52.171
rfingers 7.12502
rthumb 14.263 -81.6612
lclavicle 2.37548e-014 2.33572e-015
lhumerus -37.9271 -1.33921 85.84
lradius 38.881
lwrist -9.60671
lhand -8.06959 -34.9136
lfingers 7.12502
lthumb 17.8419 -5.71209
rfemur -32.7493 7.65497 24.1252
rtibia 51.8054
rfoot -28.4054 -21.1362
rtoes -6.56593
lfemur -35.3285 -2.10116 -19.5073
ltibia 55.1776
lfoot -34.0263 7.88991
ltoes -33.4443
92
root 8.78554 14.481 22.6538 190.632 6.28417 -178.035
lowerback 15.7001 1.17192 1.85754
upperback -2.20585 1.97162 0.230961
thorax -11.2147 0.828536 -1.29551
lowerneck -8.49161 -1.90709 -4.89637
upperneck -2.58975 -1.85852 5.40195
head 0.754436 -0.702946 2.5144
rclavicle -1.71203e-014 -5.36719e-015
rhumerus -35.3239 10.29 -89.5323
rradius 38.1886
rwrist 25.9001
rhand -12.759 -51.347
rfingers 7.12502
rthumb 13.3255 -80.9009
lclavicle -1.71203e-014 -5.36719e-015
lhumerus -37.7824 -1.27861 85.7816
lradius 38.8313
lwrist -9.71198
lhand -7.73007 -34.1274
lfingers 7.12502
lthumb 18.1686 -4.95594
rfemur -33.4977 7.80105 24.14
rtibia 52.4204
rfoot -28.648 -21.1183
rtoes -5.2876
lfemur -36.0665 -2.05796 -19.4506
ltibia 55.7572
lfoot -34.147 7.96649
ltoes -33.4822
93
root 8.78528 14.456 22.6521 191.048 6.30395 -177.994
lowerback 15.5722 1.17404 1.87878
upperback -2.05929 1.97752 0.247136
thorax -10.9752 0.836699 -1.28538
lowerneck -8.66526 -1.95586 -4.92339
upperneck -3.10604 -1.85744 5.43667
head 0.620155 -0.682315 2.52974
rclavicle -4.29872e-015 -4.82053e-015
rhumerus -34.8373 10.1559 -89.3103
rradius 38.1151
rwrist 26.3676
rhand -12.3756 -51.0271
rfingers 7.12502
rthumb 13.695 -80.5565
lclavicle -4.29872e-015 -4.82053e-015
lhumerus -37.3808 -0.999355 85.7189
lradius 38.6564
lwrist -10.0027
lhand -6.96216 -32.9085
lfingers 7.12502
lthumb 18.9072 -3.80742
rfemur -34.2574 7.93791 24.1303
rtibia 53.031
rfoot -28.9592 -21.0556
rtoes -3.76769
lfemur -36.8062 -2.06698 -19.4217
ltibia 56.3235
lfoot -34.1842 8.41094
ltoes -34.5116
